<?xml version="1.0" encoding="UTF-8" standalone="no"?>
<svg viewBox="0 0 1159 673"
     preserveAspectRatio="xMidYMid meet"
     version="1.1"
     baseProfile="full"
     xmlns="http://www.w3.org/2000/svg"
     xmlns:xlink="http://www.w3.org/1999/xlink"
     xmlns:ev="http://www.w3.org/2001/xml-events"
     xml:space="preserve">
<title>sandbox_imp</title>
<desc>Nlview schematic (SVG)</desc>
<clipPath id="clippingbbox">
<rect x="0" y="0" width="1159" height="673" />
</clipPath>
<g stroke="#102235"
   stroke-width="1"
   stroke-linecap="butt"
   stroke-linejoin="miter"
   stroke-miterlimit="4"
   stroke-dasharray="none"
   stroke-dashoffset="0"
   fill="none"
   font-family="Helvetica"
   font-style="normal"
   font-size="12"
   writing-mode="lr-tb"
   cursor="crosshair"
   clip-path="url(#clippingbbox)">
<path d="M0 0h1158v674h-1158z" stroke="none" fill="white" />
<path d="M997 146v-7h14l7 7l-7 7h-14z" stroke="none" fill="#ddd4d0" />
<g stroke-width="3">
<path d="M997 146v-7h14l7 7l-7 7h-14z" />
<text x="1022" y="146" fill="black" stroke-width="0" dy="4.4">BP[0:0]</text>
<path d="M997 256v-7h14l7 7l-7 7h-14z" stroke="none" fill="#ddd4d0" />
</g>
<g stroke="#2a5e6f" stroke-width="3">
<path d="M997 256v-7h14l7 7l-7 7h-14z" />
<text x="1022" y="256" fill="black" stroke-width="0" dy="4.4">DDR</text>
<path d="M997 276v-7h14l7 7l-7 7h-14z" stroke="none" fill="#ddd4d0" />
<path d="M997 276v-7h14l7 7l-7 7h-14z" />
<text x="1022" y="276" fill="black" stroke-width="0" dy="4.4">FIXED_IO</text>
<path d="M254 588h86l3 1l2 1l1 2l1 3v42l-1 3l-1 2l-2 1l-3 1h-86l-3 -1l-2 -1l-1 -2l-1 -3v-42l1 -3l1 -2l2 -1z" stroke="none" fill="#edf6fe" />
<text x="297" y="586" fill="black" stroke-width="0" text-anchor="middle" dy="-1.6">GND</text>
<text x="297" y="646" fill="#41619f" stroke-width="0" text-anchor="middle" dy="9.6">Constant</text>
</g>
<g stroke="black" stroke-width="5">
<path d="M357 616h-10" />
<text x="345" y="616" fill="black" stroke-width="0" font-size="10" text-anchor="end" dy="3.66667">dout[0:0]</text>
</g>
<g stroke="#41619f">
<path d="M254 588h86" />
<path d="M340,588 A6.83537,6.83537 1.61957 0,1 347,595" />
<path d="M347 595v42" />
<path d="M347,637 A6.83537,6.83537 1.61957 0,1 340,644" />
<path d="M340 644h-86" />
<path d="M254,644 A6.83537,6.83537 1.61957 0,1 247,637" />
<path d="M247 637v-42" />
<path d="M247,595 A6.83537,6.83537 1.61957 0,1 254,588" />
<path d="M997 496v-7h14l7 7l-7 7h-14z" stroke="none" fill="#ddd4d0" />
</g>
<g stroke-width="3">
<path d="M997 496v-7h14l7 7l-7 7h-14z" />
<text x="1022" y="496" fill="black" stroke-width="0" dy="4.4">HDMI_BLUE[4:0]</text>
<path d="M997 476v-7h14l7 7l-7 7h-14z" stroke="none" fill="#ddd4d0" />
<path d="M997 476v-7h14l7 7l-7 7h-14z" />
<text x="1022" y="476" fill="black" stroke-width="0" dy="4.4">HDMI_GREEN[5:0]</text>
<path d="M997 456v-7h14l7 7l-7 7h-14z" stroke="none" fill="#ddd4d0" />
<path d="M997 456v-7h14l7 7l-7 7h-14z" />
<text x="1022" y="456" fill="black" stroke-width="0" dy="4.4">HDMI_RED[4:0]</text>
<path d="M734 428h166l3 1l2 1l1 2l1 3v142l-1 3l-1 2l-2 1l-3 1h-166l-3 -1l-2 -1l-1 -2l-1 -3v-142l1 -3l1 -2l2 -1z" stroke="none" fill="#edf6fe" />
<text x="817" y="426" fill="black" stroke-width="0" text-anchor="middle" dy="-1.6">Image_generator</text>
<text x="817" y="586" fill="#41619f" stroke-width="0" text-anchor="middle" dy="9.6">Image_generator_v1_0</text>
</g>
<g stroke="black" stroke-width="3">
<path d="M717 496h10" />
<text x="729" y="496" fill="black" stroke-width="0" font-size="10" dy="3.66667">CLK</text>
<circle cx="724" cy="516" r="3" />
<path d="M717 516h4" />
<text x="729" y="516" fill="black" stroke-width="0" font-size="10" dy="3.66667">RESETN</text>
</g>
<g stroke="black" stroke-width="5">
<path d="M917 456h-10" />
<text x="905" y="456" fill="black" stroke-width="0" font-size="10" text-anchor="end" dy="3.66667">RED[4:0]</text>
<path d="M917 476h-10" />
<text x="905" y="476" fill="black" stroke-width="0" font-size="10" text-anchor="end" dy="3.66667">GREEN[5:0]</text>
<path d="M917 496h-10" />
<text x="905" y="496" fill="black" stroke-width="0" font-size="10" text-anchor="end" dy="3.66667">BLUE[4:0]</text>
</g>
<g stroke="black" stroke-width="3">
<path d="M917 516h-10" />
<text x="905" y="516" fill="black" stroke-width="0" font-size="10" text-anchor="end" dy="3.66667">DE</text>
<path d="M917 536h-10" />
<text x="905" y="536" fill="black" stroke-width="0" font-size="10" text-anchor="end" dy="3.66667">HSYNC</text>
<path d="M917 556h-10" />
<text x="905" y="556" fill="black" stroke-width="0" font-size="10" text-anchor="end" dy="3.66667">VSYNC</text>
</g>
<g stroke="#41619f">
<path d="M734 428h166" />
<path d="M900,428 A6.83537,6.83537 1.61957 0,1 907,435" />
<path d="M907 435v142" />
<path d="M907,577 A6.83537,6.83537 1.61957 0,1 900,584" />
<path d="M900 584h-166" />
<path d="M734,584 A6.83537,6.83537 1.61957 0,1 727,577" />
<path d="M727 577v-142" />
<path d="M727,435 A6.83537,6.83537 1.61957 0,1 734,428" />
<path d="M997 296v-7h14l7 7l-7 7h-14z" stroke="none" fill="#ddd4d0" />
</g>
<g stroke="#2a5e6f" stroke-width="3">
<path d="M997 296v-7h14l7 7l-7 7h-14z" />
<text x="1022" y="296" fill="black" stroke-width="0" dy="4.4">I2C0</text>
<path d="M514 468h106l3 1l2 1l1 2l1 3v62l-1 3l-1 2l-2 1l-3 1h-106l-3 -1l-2 -1l-1 -2l-1 -3v-62l1 -3l1 -2l2 -1z" stroke="none" fill="#edf6fe" />
<text x="567" y="466" fill="black" stroke-width="0" text-anchor="middle" dy="-1.6">Pixel_clock</text>
<text x="567" y="546" fill="#41619f" stroke-width="0" text-anchor="middle" dy="9.6">Clocking Wizard</text>
</g>
<g stroke="black" stroke-width="3">
<circle cx="504" cy="496" r="3" />
<path d="M497 496h4" />
<text x="509" y="496" fill="black" stroke-width="0" font-size="10" dy="3.66667">resetn</text>
<path d="M497 516h10" />
<text x="509" y="516" fill="black" stroke-width="0" font-size="10" dy="3.66667">clk_in1</text>
<path d="M637 496h-10" />
<text x="625" y="496" fill="black" stroke-width="0" font-size="10" text-anchor="end" dy="3.66667">clk_out1</text>
<path d="M637 516h-10" />
<text x="625" y="516" fill="black" stroke-width="0" font-size="10" text-anchor="end" dy="3.66667">locked</text>
</g>
<g stroke="#41619f">
<path d="M514 468h106" />
<path d="M620,468 A6.83537,6.83537 1.61957 0,1 627,475" />
<path d="M627 475v62" />
<path d="M627,537 A6.83537,6.83537 1.61957 0,1 620,544" />
<path d="M620 544h-106" />
<path d="M514,544 A6.83537,6.83537 1.61957 0,1 507,537" />
<path d="M507 537v-62" />
<path d="M507,475 A6.83537,6.83537 1.61957 0,1 514,468" />
<path d="M997 76v-7h14l7 7l-7 7h-14z" stroke="none" fill="#ddd4d0" />
</g>
<g stroke-width="3">
<path d="M997 76v-7h14l7 7l-7 7h-14z" />
<text x="1022" y="76" fill="black" stroke-width="0" dy="4.4">RGB[2:0]</text>
<path d="M754 28h126l3 1l2 1l1 2l1 3v82l-1 3l-1 2l-2 1l-3 1h-126l-3 -1l-2 -1l-1 -2l-1 -3v-82l1 -3l1 -2l2 -1z" stroke="none" fill="#aac4f7" />
<text x="817" y="26" fill="black" stroke-width="0" text-anchor="middle" dy="-1.6">RGB_LED</text>
</g>
<g stroke="#41619f" stroke-width="3">
<path d="M758 33v12" />
<path d="M752 39h12" />
</g>
<g stroke="#41619f">
<path d="M750 31h16v16h-16z" />
</g>
<g stroke="black" stroke-width="5">
<path d="M897 76h-10" />
<text x="885" y="76" fill="black" stroke-width="0" font-size="10" text-anchor="end" dy="3.66667">RGB[2:0]</text>
<path d="M737 56h10" />
<text x="749" y="56" fill="black" stroke-width="0" font-size="10" dy="3.66667">Green[0:0]</text>
<path d="M737 76h10" />
<text x="749" y="76" fill="black" stroke-width="0" font-size="10" dy="3.66667">Red[0:0]</text>
<path d="M737 96h10" />
<text x="749" y="96" fill="black" stroke-width="0" font-size="10" dy="3.66667">Blue[0:0]</text>
</g>
<g stroke="#41619f">
<path d="M754 28h126" />
<path d="M880,28 A6.83537,6.83537 1.61957 0,1 887,35" />
<path d="M887 35v82" />
<path d="M887,117 A6.83537,6.83537 1.61957 0,1 880,124" />
<path d="M880 124h-126" />
<path d="M754,124 A6.83537,6.83537 1.61957 0,1 747,117" />
<path d="M747 117v-82" />
<path d="M747,35 A6.83537,6.83537 1.61957 0,1 754,28" />
<path d="M97 556l-7 7h-14v-14h14z" stroke="none" fill="#ddd4d0" />
</g>
<g stroke-width="3">
<path d="M97 556l-7 7h-14v-14h14z" />
<text x="72" y="556" fill="black" stroke-width="0" text-anchor="end" dy="4.4">SW[3:0]</text>
<path d="M514 48h106l3 1l2 1l1 2l1 3v102l-1 3l-1 2l-2 1l-3 1h-106l-3 -1l-2 -1l-1 -2l-1 -3v-102l1 -3l1 -2l2 -1z" stroke="none" fill="#aac4f7" />
<text x="567" y="46" fill="black" stroke-width="0" text-anchor="middle" dy="-1.6">Switches</text>
</g>
<g stroke="#41619f" stroke-width="3">
<path d="M518 53v12" />
<path d="M512 59h12" />
</g>
<g stroke="#41619f">
<path d="M510 51h16v16h-16z" />
</g>
<g stroke="black" stroke-width="5">
<path d="M497 106h10" />
<text x="509" y="106" fill="black" stroke-width="0" font-size="10" dy="3.66667">SW[3:0]</text>
<path d="M637 76h-10" />
<text x="625" y="76" fill="black" stroke-width="0" font-size="10" text-anchor="end" dy="3.66667">SW0[0:0]</text>
<path d="M637 96h-10" />
<text x="625" y="96" fill="black" stroke-width="0" font-size="10" text-anchor="end" dy="3.66667">SW1[0:0]</text>
<path d="M637 116h-10" />
<text x="625" y="116" fill="black" stroke-width="0" font-size="10" text-anchor="end" dy="3.66667">SW2[0:0]</text>
<path d="M637 136h-10" />
<text x="625" y="136" fill="black" stroke-width="0" font-size="10" text-anchor="end" dy="3.66667">SW3[0:0]</text>
</g>
<g stroke="#41619f">
<path d="M514 48h106" />
<path d="M620,48 A6.83537,6.83537 1.61957 0,1 627,55" />
<path d="M627 55v102" />
<path d="M627,157 A6.83537,6.83537 1.61957 0,1 620,164" />
<path d="M620 164h-106" />
<path d="M514,164 A6.83537,6.83537 1.61957 0,1 507,157" />
<path d="M507 157v-102" />
<path d="M507,55 A6.83537,6.83537 1.61957 0,1 514,48" />
<path d="M524 588h86l3 1l2 1l1 2l1 3v42l-1 3l-1 2l-2 1l-3 1h-86l-3 -1l-2 -1l-1 -2l-1 -3v-42l1 -3l1 -2l2 -1z" stroke="none" fill="#edf6fe" />
<text x="567" y="586" fill="black" stroke-width="0" text-anchor="middle" dy="-1.6">VCC</text>
<text x="567" y="646" fill="#41619f" stroke-width="0" text-anchor="middle" dy="9.6">Constant</text>
</g>
<g stroke="black" stroke-width="5">
<path d="M627 616h-10" />
<text x="615" y="616" fill="black" stroke-width="0" font-size="10" text-anchor="end" dy="3.66667">dout[0:0]</text>
</g>
<g stroke="#41619f">
<path d="M524 588h86" />
<path d="M610,588 A6.83537,6.83537 1.61957 0,1 617,595" />
<path d="M617 595v42" />
<path d="M617,637 A6.83537,6.83537 1.61957 0,1 610,644" />
<path d="M610 644h-86" />
<path d="M524,644 A6.83537,6.83537 1.61957 0,1 517,637" />
<path d="M517 637v-42" />
<path d="M517,595 A6.83537,6.83537 1.61957 0,1 524,588" />
<path d="M997 516v-7h14l7 7l-7 7h-14z" stroke="none" fill="#ddd4d0" />
</g>
<g>
<path d="M997 516v-7h14l7 7l-7 7h-14z" />
<text x="1022" y="516" fill="black" stroke-width="0" dy="4.4">HDMI_DE</text>
<path d="M997 536v-7h14l7 7l-7 7h-14z" stroke="none" fill="#ddd4d0" />
<path d="M997 536v-7h14l7 7l-7 7h-14z" />
<text x="1022" y="536" fill="black" stroke-width="0" dy="4.4">HDMI_HSYNC</text>
<path d="M997 396v-7h14l7 7l-7 7h-14z" stroke="none" fill="#ddd4d0" />
<path d="M997 396v-7h14l7 7l-7 7h-14z" />
<text x="1022" y="396" fill="black" stroke-width="0" dy="4.4">HDMI_PCLK</text>
<path d="M997 556v-7h14l7 7l-7 7h-14z" stroke="none" fill="#ddd4d0" />
<path d="M997 556v-7h14l7 7l-7 7h-14z" />
<text x="1022" y="556" fill="black" stroke-width="0" dy="4.4">HDMI_VSYNC</text>
<path d="M164 388h266l3 1l2 1l1 2l1 3v122l-1 3l-1 2l-2 1l-3 1h-266l-3 -1l-2 -1l-1 -2l-1 -3v-122l1 -3l1 -2l2 -1z" stroke="none" fill="#edf6fe" />
<text x="297" y="386" fill="black" stroke-width="0" text-anchor="middle" dy="-1.6">proc_sys_reset_0</text>
<text x="297" y="526" fill="#41619f" stroke-width="0" text-anchor="middle" dy="9.6">Processor System Reset</text>
</g>
<g stroke="black" stroke-width="3">
<path d="M147 416h10" />
<text x="159" y="416" fill="black" stroke-width="0" font-size="10" dy="3.66667">slowest_sync_clk</text>
<circle cx="154" cy="436" r="3" />
<path d="M147 436h4" />
<text x="159" y="436" fill="black" stroke-width="0" font-size="10" dy="3.66667">ext_reset_in</text>
<circle cx="154" cy="456" r="3" />
<path d="M147 456h4" />
<text x="159" y="456" fill="black" stroke-width="0" font-size="10" dy="3.66667">aux_reset_in</text>
<path d="M147 476h10" />
<text x="159" y="476" fill="black" stroke-width="0" font-size="10" dy="3.66667">mb_debug_sys_rst</text>
<path d="M147 496h10" />
<text x="159" y="496" fill="black" stroke-width="0" font-size="10" dy="3.66667">dcm_locked</text>
<path d="M447 416h-10" />
<text x="435" y="416" fill="black" stroke-width="0" font-size="10" text-anchor="end" dy="3.66667">mb_reset</text>
</g>
<g stroke="black" stroke-width="5">
<path d="M447 436h-10" />
<text x="435" y="436" fill="black" stroke-width="0" font-size="10" text-anchor="end" dy="3.66667">bus_struct_reset[0:0]</text>
<path d="M447 456h-10" />
<text x="435" y="456" fill="black" stroke-width="0" font-size="10" text-anchor="end" dy="3.66667">peripheral_reset[0:0]</text>
<circle cx="440" cy="476" r="3" />
<path d="M447 476h-4" />
<text x="435" y="476" fill="black" stroke-width="0" font-size="10" text-anchor="end" dy="3.66667">interconnect_aresetn[0:0]</text>
<circle cx="440" cy="496" r="3" />
<path d="M447 496h-4" />
<text x="435" y="496" fill="black" stroke-width="0" font-size="10" text-anchor="end" dy="3.66667">peripheral_aresetn[0:0]</text>
</g>
<g stroke="#41619f">
<path d="M164 388h266" />
<path d="M430,388 A6.83537,6.83537 1.61957 0,1 437,395" />
<path d="M437 395v122" />
<path d="M437,517 A6.83537,6.83537 1.61957 0,1 430,524" />
<path d="M430 524h-266" />
<path d="M164,524 A6.83537,6.83537 1.61957 0,1 157,517" />
<path d="M157 517v-122" />
<path d="M157,395 A6.83537,6.83537 1.61957 0,1 164,388" />
<path d="M704 228h226l3 1l2 1l1 2l1 3v122l-1 3l-1 2l-2 1l-3 1h-226l-3 -1l-2 -1l-1 -2l-1 -3v-122l1 -3l1 -2l2 -1z" stroke="none" fill="#edf6fe" />
<text x="817" y="226" fill="black" stroke-width="0" text-anchor="middle" dy="-1.6">processing_system7_0</text>
<text x="817" y="366" fill="#41619f" stroke-width="0" text-anchor="middle" dy="9.6">ZYNQ7 Processing System</text>
<path d="M937 247h10v18h-10z" stroke="none" fill="#edf6fe" />
</g>
<g stroke="black" stroke-width="3">
<path d="M927 251v10" />
<path d="M922 256h10" />
</g>
<g stroke="black">
<path d="M920 249h14v14h-14z" />
<text x="920" y="256" fill="black" stroke-width="0" font-size="10" text-anchor="end" dy="3.66667">DDR</text>
<path d="M937 267h10v18h-10z" stroke="none" fill="#edf6fe" />
</g>
<g stroke="black" stroke-width="3">
<path d="M927 271v10" />
<path d="M922 276h10" />
</g>
<g stroke="black">
<path d="M920 269h14v14h-14z" />
<text x="920" y="276" fill="black" stroke-width="0" font-size="10" text-anchor="end" dy="3.66667">FIXED_IO</text>
<path d="M937 287h10v18h-10z" stroke="none" fill="#edf6fe" />
</g>
<g stroke="black" stroke-width="3">
<path d="M927 291v10" />
<path d="M922 296h10" />
</g>
<g stroke="black">
<path d="M920 289h14v14h-14z" />
<text x="920" y="296" fill="black" stroke-width="0" font-size="10" text-anchor="end" dy="3.66667">IIC_0</text>
</g>
<g stroke="black" stroke-width="3">
<path d="M947 316h-10" />
<text x="935" y="316" fill="black" stroke-width="0" font-size="10" text-anchor="end" dy="3.66667">FCLK_CLK0</text>
<circle cx="940" cy="336" r="3" />
<path d="M947 336h-4" />
<text x="935" y="336" fill="black" stroke-width="0" font-size="10" text-anchor="end" dy="3.66667">FCLK_RESET0_N</text>
</g>
<g stroke="#41619f">
<path d="M704 228h226" />
<path d="M930,228 A6.83537,6.83537 1.61957 0,1 937,235" />
<path d="M937 235v122" />
<path d="M937,357 A6.83537,6.83537 1.61957 0,1 930,364" />
<path d="M930 364h-226" />
<path d="M704,364 A6.83537,6.83537 1.61957 0,1 697,357" />
<path d="M697 357v-122" />
<path d="M697,235 A6.83537,6.83537 1.61957 0,1 704,228" />
</g>
<g stroke-width="3">
<path d="M637 116h30v-20h70" />
<path d="M637 96h20v-40h80" />
<path d="M917 496h80" />
<path d="M917 476h80" />
<path d="M917 456h80" />
</g>
<g>
<path d="M917 516h80" />
<path d="M917 536h80" />
<path d="M917 556h80" />
</g>
<g stroke="lime">
<path d="M717 496h-50v-100h330" />
<path d="M637 496h30" />
<path d="M665 494h5v5h-5z" stroke="none" fill="lime" />
</g>
<g>
<path d="M637 516h80" />
</g>
<g stroke-width="3">
<path d="M897 76h100" />
<path d="M637 76h100" />
<path d="M97 556h380v-450h20" />
<path d="M637 136h20v10h340" />
</g>
<g stroke="green" stroke-width="3">
<path d="M447 496h50" />
</g>
<g stroke="#999999" stroke-width="4">
<path d="M947 256h50" />
</g>
<g stroke="lime">
<path d="M147 416h-30v-240h350v340h30" />
<path d="M467 196h500v120h-20" />
<path d="M465 194h5v5h-5z" stroke="none" fill="lime" />
</g>
<g stroke="green">
<path d="M147 436h-20v-250h850v150h-30" />
</g>
<g stroke="#999999" stroke-width="4">
<path d="M947 276h50" />
<path d="M947 296h50" />
</g>
</g>
</svg>
